<svg width="54" height="54" viewBox="0 0 54 54" fill="none" xmlns="http://www.w3.org/2000/svg">
<rect x="0.0421143" width="53.654" height="54" rx="26.827" fill="#F8F8FF"/>
<rect width="21.4616" height="21.6" transform="translate(16.1382 16.2002)" fill="#F8F8FF"/>
<path d="M26.8681 22.8396C25.7715 22.8396 24.7197 23.2781 23.9443 24.0585C23.1688 24.839 22.7332 25.8975 22.7332 27.0012C22.7332 28.1049 23.1688 29.1634 23.9443 29.9439C24.7197 30.7243 25.7715 31.1628 26.8681 31.1628C27.9648 31.1628 29.0165 30.7243 29.792 29.9439C30.5674 29.1634 31.0031 28.1049 31.0031 27.0012C31.0031 25.8975 30.5674 24.839 29.792 24.0585C29.0165 23.2781 27.9648 22.8396 26.8681 22.8396ZM26.8681 29.7039C26.1557 29.7039 25.4724 29.4191 24.9686 28.912C24.4649 28.405 24.1818 27.7173 24.1818 27.0003C24.1818 26.2833 24.4649 25.5956 24.9686 25.0886C25.4724 24.5815 26.1557 24.2967 26.8681 24.2967C27.5806 24.2967 28.2638 24.5815 28.7676 25.0886C29.2714 25.5956 29.5544 26.2833 29.5544 27.0003C29.5544 27.7173 29.2714 28.405 28.7676 28.912C28.2638 29.4191 27.5806 29.7039 26.8681 29.7039Z" fill="#3A3A3A"/>
<path d="M31.1662 23.6567C31.6983 23.6567 32.1296 23.2223 32.1296 22.6865C32.1296 22.1507 31.6983 21.7163 31.1662 21.7163C30.6341 21.7163 30.2027 22.1507 30.2027 22.6865C30.2027 23.2223 30.6341 23.6567 31.1662 23.6567Z" fill="#3A3A3A"/>
<path d="M34.4995 21.7002C34.2925 21.1621 33.9761 20.6735 33.5707 20.2656C33.1653 19.8577 32.6797 19.5395 32.145 19.3314C31.5193 19.095 30.8583 18.9672 30.1902 18.9534C29.329 18.9156 29.0563 18.9048 26.8726 18.9048C24.6889 18.9048 24.409 18.9048 23.555 18.9534C22.8873 18.9665 22.2268 19.0943 21.602 19.3314C21.0672 19.5393 20.5814 19.8574 20.176 20.2653C19.7705 20.6733 19.4542 21.162 19.2475 21.7002C19.0125 22.3298 18.8858 22.9951 18.8728 23.6676C18.8343 24.5334 18.8227 24.8079 18.8227 27.0066C18.8227 29.2044 18.8227 29.4843 18.8728 30.3456C18.8862 31.0188 19.0123 31.683 19.2475 32.3139C19.4548 32.8519 19.7714 33.3404 20.177 33.7483C20.5825 34.1562 21.0682 34.4744 21.6029 34.6827C22.2265 34.9286 22.8873 35.0655 23.5568 35.0877C24.4179 35.1255 24.6907 35.1372 26.8744 35.1372C29.0581 35.1372 29.338 35.1372 30.192 35.0877C30.8601 35.074 31.521 34.9465 32.1468 34.7106C32.6813 34.502 33.1668 34.1835 33.5722 33.7755C33.9776 33.3674 34.294 32.8789 34.5013 32.3409C34.7365 31.7109 34.8626 31.0467 34.876 30.3735C34.9144 29.5077 34.9261 29.2332 34.9261 27.0345C34.9261 24.8358 34.9261 24.5568 34.876 23.6955C34.8656 23.0135 34.7382 22.3385 34.4995 21.7002ZM33.4103 30.279C33.4046 30.7977 33.3105 31.3115 33.1322 31.7982C32.9979 32.1482 32.7923 32.466 32.5287 32.7312C32.265 32.9964 31.9491 33.2031 31.6013 33.3381C31.1231 33.5167 30.618 33.6114 30.1079 33.618C29.2584 33.6576 29.0188 33.6675 26.8404 33.6675C24.6603 33.6675 24.4376 33.6675 23.572 33.618C23.0622 33.6117 22.5573 33.517 22.0795 33.3381C21.7305 33.204 21.4133 32.9976 21.1485 32.7323C20.8837 32.4671 20.6772 32.1488 20.5423 31.7982C20.3665 31.3167 20.2725 30.8089 20.2642 30.2961C20.2257 29.4411 20.2168 29.1999 20.2168 27.0075C20.2168 24.8142 20.2168 24.5901 20.2642 23.718C20.27 23.1996 20.364 22.6861 20.5423 22.1997C20.815 21.4896 21.3739 20.9307 22.0795 20.6589C22.5575 20.4808 23.0623 20.3862 23.572 20.379C24.4224 20.3403 24.6611 20.3295 26.8404 20.3295C29.0196 20.3295 29.2432 20.3295 30.1079 20.379C30.618 20.3852 31.1232 20.4798 31.6013 20.6589C31.9491 20.7941 32.2649 21.0011 32.5286 21.2664C32.7922 21.5318 32.9978 21.8496 33.1322 22.1997C33.308 22.6811 33.402 23.1889 33.4103 23.7018C33.4488 24.5577 33.4586 24.798 33.4586 26.9913C33.4586 29.1837 33.4586 29.4195 33.4202 30.2799H33.4103V30.279Z" fill="#3A3A3A"/>
</svg>
