<svg width="54" height="54" viewBox="0 0 54 54" fill="none" xmlns="http://www.w3.org/2000/svg">
<rect x="0.30368" width="53.654" height="54" rx="26.827" fill="#F8F8FF"/>
<rect width="21.4616" height="21.6" transform="translate(16.3999 16.2002)" fill="#F8F8FF"/>
<path d="M20.8558 22.6774C21.9364 22.6774 22.8124 21.7958 22.8124 20.7082C22.8124 19.6207 21.9364 18.739 20.8558 18.739C19.7753 18.739 18.8993 19.6207 18.8993 20.7082C18.8993 21.7958 19.7753 22.6774 20.8558 22.6774Z" fill="#3A3A3A"/>
<path d="M24.6599 24.1697V35.0948H28.0303V29.6921C28.0303 28.2665 28.2967 26.8859 30.053 26.8859C31.7851 26.8859 31.8066 28.5158 31.8066 29.7821V35.0957H35.1788V29.1044C35.1788 26.1614 34.5492 23.8997 31.1315 23.8997C29.4905 23.8997 28.3906 24.806 27.9408 25.6637H27.8952V24.1697H24.6599ZM19.1675 24.1697H22.5432V35.0948H19.1675V24.1697Z" fill="#3A3A3A"/>
</svg>
