<svg width="54" height="54" viewBox="0 0 54 54" fill="none" xmlns="http://www.w3.org/2000/svg">
<rect x="0.345978" width="53.654" height="54" rx="26.827" fill="#F8F8FF"/>
<path d="M33.9988 23.3976C34.0104 23.5551 34.0104 23.7117 34.0104 23.8683C34.0104 28.6608 30.3861 34.1832 23.7625 34.1832C21.7218 34.1832 19.8261 33.5883 18.2307 32.5551C18.5205 32.5884 18.7995 32.6001 19.1008 32.6001C20.7221 32.604 22.2974 32.0584 23.5729 31.0512C22.8212 31.0375 22.0926 30.7879 21.4887 30.3372C20.8847 29.8866 20.4357 29.2574 20.2043 28.5375C20.427 28.5708 20.6505 28.5933 20.8848 28.5933C21.2076 28.5933 21.5323 28.5483 21.8336 28.47C21.0179 28.3042 20.2843 27.8592 19.7578 27.2106C19.2312 26.562 18.9441 25.7499 18.9452 24.9123V24.8673C19.4254 25.1364 19.9825 25.3047 20.5727 25.3272C20.0783 24.9965 19.6729 24.5478 19.3927 24.0211C19.1124 23.4944 18.9661 22.9061 18.9667 22.3086C18.9667 21.6354 19.1447 21.018 19.4567 20.4798C20.3618 21.6003 21.4907 22.517 22.7702 23.1705C24.0497 23.824 25.4513 24.1997 26.8842 24.2733C26.8288 24.0033 26.7948 23.7234 26.7948 23.4426C26.7946 22.9664 26.8876 22.4949 27.0685 22.055C27.2495 21.6151 27.5148 21.2153 27.8493 20.8787C28.1838 20.542 28.581 20.275 29.0181 20.0929C29.4552 19.9108 29.9237 19.8171 30.3968 19.8174C31.4341 19.8174 32.3704 20.2548 33.0285 20.9622C33.8349 20.8052 34.6082 20.509 35.3142 20.0865C35.0454 20.9242 34.4823 21.6346 33.7305 22.0845C34.4457 22.0024 35.1447 21.8131 35.8042 21.5229C35.3116 22.2457 34.7012 22.8795 33.9988 23.3976Z" fill="#3A3A3A"/>
</svg>
